<svg xmlns="http://www.w3.org/2000/svg" width="22" height="31">
    <path fill="#E74C3C" fill-rule="evenodd" d="M21.89 17.296l-2.509-3.774a.637.637 0 0 0-1.062 0l-2.509 3.774a.667.667 0 0 0-.036.674.64.64 0 0 0 .567.348h1.238c-.534 2.247-2.748 4.048-5.083 4.613V8.466h1.995c.551 0 .997-.456.997-1.018s-.446-1.018-.997-1.018h-1.028a3.726 3.726 0 0 0 1.176-2.717c0-2.048-1.633-3.715-3.639-3.715-2.007 0-3.64 1.667-3.64 3.715A3.73 3.73 0 0 0 8.536 6.43H7.509c-.551 0-.997.456-.997 1.018s.446 1.018.997 1.018h1.995v14.465c-2.335-.565-4.55-2.365-5.084-4.613h1.239a.642.642 0 0 0 .567-.348.665.665 0 0 0-.037-.674L3.68 13.522a.636.636 0 0 0-1.061 0L.11 17.296a.665.665 0 0 0-.036.674.64.64 0 0 0 .567.348H1.99c.503 3.495 3.455 7.06 6.78 8.238l-.249.312a.664.664 0 0 0-.038.774l1.981 3.063a.64.64 0 0 0 .536.294.637.637 0 0 0 .535-.294l1.981-3.063a.663.663 0 0 0-.038-.774l-.248-.312c3.324-1.178 6.277-4.743 6.779-8.238h1.35a.64.64 0 0 0 .567-.348.667.667 0 0 0-.036-.674zM11 2.034c.907 0 1.645.753 1.645 1.679S11.907 5.392 11 5.392s-1.645-.753-1.645-1.679.738-1.679 1.645-1.679z"/>
</svg>
