<svg xmlns="http://www.w3.org/2000/svg" width="31" height="26">
    <path fill="#E74C3C" fill-rule="evenodd" d="M17.396-.001a3.39 3.39 0 0 0-1.459.315L.774 7.627c-.435.209-.772.554-.772.998 0 .445.337.789.772.998l8.529 4.114c.063.03.133.045.204.045l8.529-.153a.455.455 0 0 0 .188-.044l12.004-5.79c.434-.21.772-.553.772-.998 0-.445-.338-.789-.772-.999L18.855.314a3.387 3.387 0 0 0-1.459-.315zm0 .9c.401 0 .802.064 1.068.192l11.372 5.485c.265.128.278.225.278.221 0-.005-.013.092-.278.22l-11.808 5.695-4.227-2.038a.45.45 0 0 0-.391 0l-4.227 2.038-8.017-3.866C.9 8.718.888 8.621.888 8.625c0 .004.012-.093.278-.221l15.162-7.313c.266-.128.667-.192 1.068-.192zm1.255 2.023a.22.22 0 0 0-.216.223.22.22 0 0 0 .127.19l6.318 3.046a.222.222 0 0 0 .299-.091.214.214 0 0 0-.093-.292l-.01-.005-6.318-3.047a.233.233 0 0 0-.107-.024zm-3.159 1.523a.22.22 0 0 0-.215.224c.002.08.051.153.126.188l6.318 3.048a.223.223 0 0 0 .299-.09.216.216 0 0 0-.093-.294l-.01-.004-6.318-3.047a.234.234 0 0 0-.107-.025zm-3.159 1.524a.219.219 0 0 0-.215.223.214.214 0 0 0 .126.189l6.318 3.048a.224.224 0 0 0 .296-.099.214.214 0 0 0-.101-.29L12.44 5.993a.22.22 0 0 0-.107-.024zm-5.459.152a.23.23 0 0 0-.1.024L2.035 8.431a.215.215 0 0 0 0 .389l2.211 1.065a.224.224 0 0 0 .3-.09.216.216 0 0 0-.093-.293l-.011-.004-1.808-.873 4.335-2.091a.213.213 0 0 0 .105-.288.22.22 0 0 0-.2-.125zm6.731 5.425l2.59 1.249-5.378.096 2.788-1.345zm16.776.053a.556.556 0 0 0-.244.056l-16.716 7.947L.79 13.396a.542.542 0 0 0-.724.225.521.521 0 0 0 .23.71l.012.006 12.868 6.322c.15.074.326.075.476.004l16.955-8.06a.523.523 0 0 0 .259-.701.54.54 0 0 0-.485-.303zm-11.653 4.21a.268.268 0 0 0-.121.031l-5.256 2.572-4.718-2.362a.274.274 0 0 0-.362.115.262.262 0 0 0 .117.355l4.839 2.421a.28.28 0 0 0 .243.001l5.377-2.632a.262.262 0 0 0 .126-.352.274.274 0 0 0-.245-.149zm11.653 1.041a.542.542 0 0 0-.244.056l-16.716 7.946L.79 18.645a.544.544 0 0 0-.727.219.52.52 0 0 0 .245.721l12.868 6.324c.15.073.326.075.476.003l16.955-8.06a.52.52 0 0 0 .259-.699.538.538 0 0 0-.485-.303zm-11.653 4.209a.266.266 0 0 0-.121.029l-5.256 2.572-4.718-2.359a.273.273 0 0 0-.364.108.263.263 0 0 0 .112.357l.007.003 4.84 2.421a.274.274 0 0 0 .242.001l5.377-2.632a.26.26 0 0 0 .126-.351.272.272 0 0 0-.245-.149z"/>
</svg>
