<svg xmlns="http://www.w3.org/2000/svg" width="27" height="22">
    <path fill="#E74C3C" fill-rule="evenodd" d="M25.962 17.892h-.742v.148c0 .242-.2.439-.445.439a.442.442 0 0 1-.445-.439v-.148h-.891v.148a.442.442 0 0 1-.445.439.443.443 0 0 1-.445-.439v-.148h-.89v.148a.442.442 0 0 1-.445.439.442.442 0 0 1-.445-.439v-.148H1.038c-.572 0-1.038-.46-1.038-1.026V1.026C0 .46.466-.001 1.038-.001h24.924C26.534-.001 27 .46 27 1.026v15.84c0 .566-.466 1.026-1.038 1.026zm.148-16.866a.15.15 0 0 0-.148-.147H1.038a.15.15 0 0 0-.148.147v15.84a.15.15 0 0 0 .148.146h24.924a.15.15 0 0 0 .148-.146V1.026zm-1.335 15.107H2.225a.443.443 0 0 1-.445-.441V3.959c0-.243.199-.44.445-.44s.445.197.445.44v11.294h21.66v-1.907c0-.243.199-.44.445-.44.245 0 .445.197.445.44v2.346c0 .243-.2.441-.445.441zm0-4.108a.442.442 0 0 1-.445-.439V2.639H2.225a.442.442 0 0 1-.445-.44c0-.243.199-.439.445-.439h22.55c.245 0 .445.196.445.439v9.387c0 .243-.2.439-.445.439zM6.379 21.119h5.192v-1.907c0-.243.2-.44.445-.44.246 0 .445.197.445.44v1.907h2.077v-1.907c0-.243.2-.44.445-.44.246 0 .445.197.445.44v1.907h5.193c.246 0 .445.196.445.44 0 .243-.199.44-.445.44H6.379a.442.442 0 0 1-.445-.44c0-.244.199-.44.445-.44z"/>
</svg>
