<svg xmlns="http://www.w3.org/2000/svg" width="25" height="22"><path fill="#E74C3C" fill-rule="evenodd" d="M21.648 21.999H3.352C1.511 21.999 0 20.44 0 18.577V7.597c0-1.865 1.511-3.396 3.352-3.396l2.431-.014L8.379.375a.824.824 0 01.673-.376h6.772a.83.83 0 01.687.389l2.514 3.799 2.623.014C23.489 4.201 25 5.732 25 7.597v10.98c0 1.863-1.511 3.422-3.352 3.422zm1.69-3.422V7.597c0-.946-.769-1.725-1.703-1.725l-3.077-.028a.847.847 0 01-.673-.376l-2.5-3.786H9.492L6.896 5.495a.827.827 0 01-.673.376H3.352c-.934 0-1.704.78-1.704 1.726v10.98c0 .945.77 1.752 1.704 1.752h18.296c.934 0 1.704-.807 1.704-1.752h-.014zm-2.953-8.768a1.145 1.145 0 01-1.141-1.154c0-.641.509-1.156 1.141-1.156.631 0 1.14.515 1.14 1.156 0 .639-.509 1.154-1.14 1.154zm0-1.67a.52.52 0 00-.509.516c0 .278.22.514.509.514a.51.51 0 00.508-.514.52.52 0 00-.508-.516zm0 .835a.317.317 0 01-.316-.319c0-.178.141-.321.316-.321.174 0 .316.143.316.321a.318.318 0 01-.316.319zm-7.816 9.059c-3.215 0-5.838-2.658-5.838-5.914s2.61-5.914 5.838-5.914c3.214 0 5.838 2.658 5.838 5.914s-2.624 5.914-5.838 5.914zm0-10.157c-2.308 0-4.19 1.905-4.19 4.243s1.882 4.244 4.19 4.244c2.307 0 4.189-1.906 4.189-4.244s-1.882-4.243-4.189-4.243z"/></svg>