<svg xmlns="http://www.w3.org/2000/svg" width="22" height="28"><path fill="#FFF" fill-rule="evenodd" d="M21.396 27.869c-.167.086-.354.13-.551.13a1.71 1.71 0 01-.802-.219l-8.051-4.352c-.529-.286-1.456-.286-1.984 0L1.957 27.78c-.476.257-.969.289-1.353.089C.22 27.668 0 27.264 0 26.758V1.75C0 .785.858-.001 1.913-.001h18.174C21.142-.001 22 .785 22 1.75v25.008c0 .506-.22.91-.604 1.111zM21.043 1.75c0-.483-.429-.876-.956-.876v.876c0 .241-.214.436-.478.436s-.479-.195-.479-.436V.874H2.869v.876c0 .241-.214.436-.478.436s-.478-.195-.478-.436V.874c-.527 0-.956.393-.956.876v25.008c0 .213.065.322.121.351.056.029.193.025.392-.082l8.051-4.353c.415-.224.947-.336 1.479-.336.532 0 1.064.112 1.479.336l8.051 4.353c.199.107.336.111.392.082.056-.029.121-.138.121-.351V1.75zm-1.434 23.625c-.264 0-.479-.197-.479-.438V6.124c0-.241.215-.437.479-.437s.478.196.478.437v18.813c0 .241-.214.438-.478.438zm0-20.563c-.264 0-.479-.196-.479-.437V3.5c0-.242.215-.438.479-.438s.478.196.478.438v.875c0 .241-.214.437-.478.437zM2.391 25.375c-.264 0-.478-.197-.478-.438V6.124c0-.241.214-.437.478-.437s.478.196.478.437v18.813c0 .241-.214.438-.478.438zm0-20.563c-.264 0-.478-.196-.478-.437V3.5c0-.242.214-.438.478-.438s.478.196.478.438v.875c0 .241-.214.437-.478.437z"/></svg>